<?xml version="1.0" encoding="UTF-8"?>
<svg width="40" height="40" viewBox="0 0 40 40" fill="none" xmlns="http://www.w3.org/2000/svg">
  <!-- Background circle -->
  <circle cx="20" cy="20" r="20" fill="#3D8C6F"/>
  
  <!-- Baby head -->
  <circle cx="20" cy="15" r="8" fill="white"/>
  
  <!-- Baby body -->
  <path d="M14 22C14 22 16 26 20 26C24 26 26 22 26 22" stroke="white" stroke-width="2" stroke-linecap="round"/>
  
  <!-- Baby arms -->
  <path d="M12 20C12 20 14 23 16 21" stroke="white" stroke-width="2" stroke-linecap="round"/>
  <path d="M28 20C28 20 26 23 24 21" stroke="white" stroke-width="2" stroke-linecap="round"/>
  
  <!-- Baby legs -->
  <path d="M17 26L16 30" stroke="white" stroke-width="2" stroke-linecap="round"/>
  <path d="M23 26L24 30" stroke="white" stroke-width="2" stroke-linecap="round"/>
  
  <!-- Baby eyes -->
  <circle cx="17" cy="14" r="1" fill="#3D8C6F"/>
  <circle cx="23" cy="14" r="1" fill="#3D8C6F"/>
  
  <!-- Baby smile -->
  <path d="M18 17C18 17 19 18 20 18C21 18 22 17 22 17" stroke="#3D8C6F" stroke-width="1" stroke-linecap="round"/>
</svg> 