<?xml version="1.0" encoding="UTF-8"?>
<svg width="40" height="40" viewBox="0 0 40 40" fill="none" xmlns="http://www.w3.org/2000/svg">
  <!-- Background circle -->
  <circle cx="20" cy="20" r="20" fill="#3D8C6F"/>
  
  <!-- Baby head - larger and more rounded -->
  <circle cx="20" cy="16" r="10" fill="white"/>
  
  <!-- Baby body - more rounded -->
  <path d="M14 25C14 25 17 30 20 30C23 30 26 25 26 25" stroke="white" stroke-width="2.5" stroke-linecap="round"/>
  
  <!-- Baby arms - shorter and cuter -->
  <path d="M13 22C13 22 15 24 16 23" stroke="white" stroke-width="2" stroke-linecap="round"/>
  <path d="M27 22C27 22 25 24 24 23" stroke="white" stroke-width="2" stroke-linecap="round"/>
  
  <!-- Baby legs - chubbier -->
  <path d="M17 30L16 34" stroke="white" stroke-width="2.5" stroke-linecap="round"/>
  <path d="M23 30L24 34" stroke="white" stroke-width="2.5" stroke-linecap="round"/>
  
  <!-- Baby eyes - bigger and more expressive -->
  <circle cx="16" cy="14" r="1.5" fill="#3D8C6F"/>
  <circle cx="24" cy="14" r="1.5" fill="#3D8C6F"/>
  
  <!-- Baby cheeks -->
  <circle cx="14" cy="17" r="1.5" fill="#FFCECE" opacity="0.7"/>
  <circle cx="26" cy="17" r="1.5" fill="#FFCECE" opacity="0.7"/>
  
  <!-- Baby smile - cuter -->
  <path d="M17 18C17 18 18.5 20 20 20C21.5 20 23 18 23 18" stroke="#3D8C6F" stroke-width="1.5" stroke-linecap="round"/>
  
  <!-- Baby hair - a few strands -->
  <path d="M15 8C15 8 16 10 18 9" stroke="white" stroke-width="1.5" stroke-linecap="round"/>
  <path d="M20 7C20 7 21 9 22 8" stroke="white" stroke-width="1.5" stroke-linecap="round"/>
  <path d="M25 8C25 8 24 10 22 9" stroke="white" stroke-width="1.5" stroke-linecap="round"/>
</svg> 